<?xml version="1.0" encoding="utf-8"?>
<!-- Generator: Adobe Illustrator 22.1.0, SVG Export Plug-In . SVG Version: 6.00 Build 0)  -->
<svg version="1.1" id="Calque_1" xmlns="http://www.w3.org/2000/svg" xmlns:xlink="http://www.w3.org/1999/xlink" x="0px" y="0px"
	 viewBox="0 0 500 500" style="enable-background:new 0 0 500 500;" xml:space="preserve">
<style type="text/css">
	.st0{fill:none;}
	.st1{fill:#354DFC;}
	.st2{fill:#002C49;}
	.st3{fill:#00FF8B;}
	.st4{fill:#FF0000;}
	.st5{fill:#FFFFFF;}
</style>
<g id="Calque_1_1_">
</g>
<g id="Vert">
	<g>
		<path class="st0" d="M304,116.6V99.2c0-1.2,0-2.3-0.1-3.4c-0.4,0-0.8,0-1.1,0h-5.9v35.5C301.6,129.9,304,125.9,304,116.6z"/>
		<path class="st0" d="M423.8,390.9c0,17.8,4.4,25.9,13.5,29c9.2-3,13.5-11.2,13.5-29v-63.8c0-7.4-0.8-13.1-2.2-17.6
			c-3.1-1-6.9-1.4-11.2-1.4c-4.2,0-8,0.4-11.1,1.5c-1.6,4.4-2.4,10.1-2.4,17.6V390.9z"/>
		<path class="st0" d="M304.1,328.2v-17.4c0-1.2,0-2.2-0.1-3.4c-0.4,0-0.8,0-1.1,0H297v35.5C301.9,341.7,304.1,337.7,304.1,328.2z"
			/>
		<polygon class="st0" points="172.9,376.3 172.2,372.1 171.5,376.3 		"/>
		<path class="st0" d="M310.2,192.1v-20.8c0-1.9-0.1-3.5-0.2-4.9c-1.6-0.2-3.5-0.4-5.6-0.4h-7.6v43.9
			C306.1,209.2,310.2,204.8,310.2,192.1z"/>
		<path class="st1" d="M310.1,378.1c-1.1-8.1-5.2-11-13.1-11.6v11.4h7.6C306.6,377.8,308.5,377.9,310.1,378.1z"/>
		<g>
			<polygon class="st1" points="22.9,233.6 11.5,233.6 11.5,245.1 85.4,245.1 85.4,233.6 			"/>
			<path class="st1" d="M338.4,141.8c0.8-1.1,1.4-2.5,1.8-3.8c-3.4,1.4-7.6,2.1-12.6,2.4C331.5,140.7,335.1,141.1,338.4,141.8z"/>
			<path class="st1" d="M270.8,233.6L270.8,233.6h-11.5v11.5h45.2c21.8,0,34.1-5.5,39.8-16.7c-6.8,3.5-16,5.2-28.2,5.2H270.8z"/>
			<path class="st1" d="M310,166.4c-1.1-8.1-5.2-11-13.1-11.6v11.4h7.6C306.5,166.1,308.4,166.2,310,166.4z"/>
			<path class="st1" d="M303.9,95.8c-0.5-6.8-2.8-9.8-7-10.9v10.9h5.9C303.1,95.8,303.5,95.8,303.9,95.8z"/>
			<polygon class="st1" points="207.2,445.3 195.8,445.3 191.9,445.3 193.8,456.7 219.5,456.7 217.5,445.3 210.1,445.3 			"/>
			<polygon class="st1" points="167.6,399.3 165.8,410.8 178.6,410.8 176.8,399.3 			"/>
			<polygon class="st1" points="134.2,445.3 122.8,445.3 122.8,445.3 120.8,456.7 146.5,456.7 148.4,445.3 137.1,445.3 			"/>
			<path class="st1" d="M448.5,309.6c-2.1-6-5.9-9.6-11.1-11.4c-5.4,1.8-9,5.4-11.2,11.4c3.1-1,6.9-1.5,11.1-1.5
				C441.6,308.2,445.4,308.6,448.5,309.6z"/>
			<path class="st1" d="M443,446.2c-1.9,0.1-3.8,0.2-5.6,0.2c-2,0-3.9-0.1-5.8-0.2c-1.9,0.1-3.8,0.2-5.6,0.2
				c-13.4,0-23.8-2.5-31.8-7.4c7.9,12.4,21.8,18.9,43.1,18.9c21.2,0,35.4-6.6,43.4-19.1c-8,5-18.5,7.6-31.9,7.6
				C446.8,446.3,444.9,446.3,443,446.2z"/>
			<polygon class="st1" points="170.5,233.6 159,233.6 159,245.1 185,245.1 185,233.6 			"/>
			<polygon class="st1" points="74.2,445.3 23.2,445.3 11.9,445.3 11.9,445.3 11.9,456.7 85.8,456.7 85.8,445.3 85.8,445.3 			"/>
			<path class="st1" d="M304,307.6c-0.5-6.8-2.8-9.8-7-10.9v10.9h5.9C303.2,307.6,303.6,307.6,304,307.6z"/>
			<path class="st1" d="M304.8,445.3h-11.5h-22.4h-11.5l0,0v11.5h45.2c21.8,0,34.1-5.5,39.8-16.8c-6.8,3.5-16,5.2-28.3,5.2
				L304.8,445.3L304.8,445.3z"/>
			<path class="st1" d="M338.5,353.6c0.8-1.1,1.2-2.5,1.7-3.8c-3.4,1.4-7.6,2.1-12.6,2.4C331.8,352.3,335.4,352.8,338.5,353.6z"/>
			<polygon class="st1" points="446,86.4 446,97.9 488.5,97.9 488.5,86.4 477.1,86.4 			"/>
			<rect x="446" y="156.9" class="st1" width="40.9" height="11.5"/>
			<polygon class="st1" points="419.9,233.6 408.5,233.6 408.5,233.6 408.5,245.1 488.5,245.1 488.5,233.6 			"/>
			<polygon class="st1" points="464.5,55.2 456.2,55.2 456.2,55.2 444.8,55.2 438,55.2 437.9,55.2 435.9,61.1 458.1,61.1 			"/>
		</g>
		<polygon class="st2" points="73.9,233.6 22.9,233.6 22.9,233.6 85.4,233.6 85.4,233.6 		"/>
		<path class="st2" d="M296.9,95.8V84.9c-1.6-0.4-3.4-0.6-5.6-0.6h-5.9v11.5H296.9z"/>
		<path class="st2" d="M296.9,166.1v-11.4c-1.2-0.1-2.5-0.1-3.9-0.1h-7.6v11.5L296.9,166.1L296.9,166.1z"/>
		<path class="st2" d="M348,198.3c0,23.9-11.9,35.4-43.4,35.4h-11.5h-22.4l0,0H316c12.2,0,21.5-1.7,28.2-5.2
			c2.5-5,3.6-11.2,3.6-18.6v-11.5H348z"/>
		<path class="st2" d="M341.5,104.3L341.5,104.3v13.3c0,13.5-7,21.7-25.4,22.9c8.4,0.4,14.7,2,19.6,4.6c1-1,1.9-2,2.6-3.3
			c-3.2-0.8-6.8-1.1-10.9-1.4c5-0.2,9.2-1.1,12.6-2.4c0.9-2.6,1.4-5.6,1.4-9L341.5,104.3L341.5,104.3z"/>
		<polygon class="st2" points="156.2,399.3 154.2,410.8 165.8,410.8 167.6,399.3 		"/>
		<path class="st2" d="M412.4,327.2v11.5c0-17.8,4.4-26,13.8-29c2.1-6,5.9-9.6,11.2-11.4c-1.8-0.6-3.6-1-5.8-1.2
			C418.4,298.6,412.4,306.3,412.4,327.2z"/>
		<path class="st2" d="M488.5,394.1c0,32-14,50.1-45.5,52.1c1.9,0.1,3.8,0.2,5.8,0.2c13.4,0,23.9-2.6,31.9-7.6
			c5.4-8.4,7.9-19.5,7.9-33.1V394.1z"/>
		<polygon class="st2" points="173.6,233.6 170.5,233.6 170.5,233.6 185,233.6 185,233.6 		"/>
		<rect x="85.8" y="431.3" class="st2" width="0" height="13.9"/>
		<rect x="37.9" y="284.2" class="st2" width="0" height="135.6"/>
		<path class="st2" d="M285.5,377.8H297v-11.4c-1.2-0.1-2.5-0.1-3.9-0.1h-7.6"/>
		<path class="st2" d="M297,307.6v-10.9c-1.6-0.4-3.4-0.6-5.6-0.6h-5.9v47.6l0,0v-36.1H297z"/>
		<path class="st2" d="M348.2,409.9c0,23.9-11.9,35.4-43.4,35.4h11.5c12.2,0,21.5-1.8,28.2-5.2c2.5-5,3.6-11.2,3.6-18.6V409.9z"/>
		<path class="st2" d="M341.6,329.3c0,13.5-7,21.7-25.4,22.9c8.4,0.4,14.8,2,19.6,4.6c1-1,1.9-2,2.6-3.3c-3.3-0.8-6.8-1.1-10.9-1.4
			c5-0.2,9.2-1.1,12.6-2.4c0.9-2.6,1.4-5.6,1.4-9L341.6,329.3L341.6,329.3z"/>
		<polygon class="st2" points="477.1,233.6 419.9,233.6 419.9,233.6 488.5,233.6 488.5,233.6 		"/>
		<rect x="434.5" y="86.4" class="st2" width="11.5" height="11.5"/>
		<rect x="434.5" y="156.9" class="st2" width="11.5" height="11.5"/>
		<path class="st2" d="M434.5,156.9"/>
		<g>
			<rect x="37.5" y="61.1" class="st3" width="11.5" height="147.1"/>
			<polygon class="st3" points="96.8,208.2 85.4,208.2 85.4,233.6 85.4,233.6 85.4,233.6 96.8,233.6 			"/>
			<path class="st3" d="M296.9,131.3V95.8h-11.5v36.1h5.9C293.4,132.1,295.2,131.8,296.9,131.3z"/>
			<path class="st3" d="M341.5,92.8v11.4l0,0v24.8c0,3.3-0.4,6.2-1.4,9c9.1-3.5,12.8-10.6,12.8-20.4V92.8c0-22-10.1-31.8-37.5-31.8
				H304C331.2,61.1,341.5,70.8,341.5,92.8z"/>
			<path class="st3" d="M296.9,209.9v-43.9h-11.5v44h7.6C294.4,210.1,295.6,210.1,296.9,209.9z"/>
			<path class="st3" d="M335.8,145.1c8.6,4.6,12.2,12.7,12.2,23.8v11.5v18v11.5c0,7.4-1.1,13.6-3.6,18.6
				c10.6-5.5,15.1-15.5,15.1-30.1v-29.4c0-14.4-6-23.6-21.1-27C337.6,143.1,336.8,144.1,335.8,145.1z"/>
			<polygon class="st3" points="148.6,445.3 160,445.3 165.8,410.8 154.2,410.8 			"/>
			<polygon class="st3" points="160,376.3 171.5,376.3 172.2,372.1 166.5,338.1 			"/>
			<polygon class="st3" points="191.4,272.8 221.6,445.3 233.1,445.3 202.8,272.8 			"/>
			<path class="st3" d="M448.8,271.7c-1.8,0-3.5,0.1-5.2,0.3c31.5,2.1,45,20.2,45,52.1v11.5v58.6v11.5c0,13.6-2.5,24.8-7.9,33.1
				c13.2-8.4,19.4-23.5,19.4-44.6v-70C500,290.2,484.8,271.7,448.8,271.7z"/>
			<path class="st3" d="M423.8,390.9v-63.8c0-7.4,0.8-13.1,2.4-17.6c-9.4,3-13.8,11.2-13.8,29v52.2c0,21.1,6.1,28.6,19.2,30.1
				c2.1-0.2,4-0.6,5.8-1.2C428.1,416.8,423.8,408.7,423.8,390.9z"/>
			<polygon class="st3" points="196.5,61.1 185,61.1 185,72.6 185,233.6 185,233.6 196.5,233.6 			"/>
			<polygon class="st3" points="85.8,431.3 85.8,431.3 85.8,445.3 97.1,445.3 97.1,419.9 85.8,419.9 			"/>
			<polygon class="st3" points="37.9,284.2 37.9,284.2 37.9,419.9 49.4,419.9 49.4,272.8 37.9,272.8 			"/>
			<path class="st3" d="M338.5,353.6c-0.8,1.1-1.6,2.2-2.6,3.3c8.6,4.6,12.2,12.8,12.2,23.8v11.5l0,0v29.4c0,7.4-1.1,13.6-3.6,18.6
				c10.6-5.5,15.1-15.5,15.1-30.1v-29.4C359.6,366.2,353.6,356.9,338.5,353.6z"/>
			<path class="st3" d="M341.6,329.3L341.6,329.3v11.5c0,3.4-0.4,6.2-1.4,9c9.1-3.5,12.8-10.6,12.8-20.4v-24.7
				c0-22-10.1-31.8-37.5-31.8H304c27.2,0,37.5,9.7,37.5,31.8v24.6H341.6z"/>
			<path class="st3" d="M285.5,343.7h5.9c2.1,0,4-0.1,5.6-0.6v-35.5h-11.5V343.7z"/>
			<path class="st3" d="M285.5,421.8h7.6c1.4,0,2.6,0,3.9-0.1v-43.9h-11.5V421.8z"/>
			<rect x="434.5" y="168.4" class="st3" width="11.5" height="39.8"/>
			<polygon class="st3" points="488.5,219.7 488.5,233.6 488.5,233.6 500,233.6 500,208.2 488.5,208.2 			"/>
			<rect x="434.5" y="97.9" class="st3" width="11.5" height="34.5"/>
			<polygon class="st3" points="486.9,156.9 498.2,156.9 498.2,132.4 486.9,132.4 486.9,143.9 486.9,143.9 			"/>
			<polygon class="st3" points="488.5,61.1 488.5,72.6 488.5,86.4 500,86.4 500,61.1 			"/>
			<polygon class="st3" points="470.2,42.1 458,53.6 466.2,53.6 464.5,55.2 467.6,55.2 481.6,42.1 453.9,42.1 453.9,42.1 
				458.8,42.1 			"/>
		</g>
		<polygon class="st2" points="458,53.6 456.2,55.2 464.5,55.2 466.2,53.6 		"/>
		<g>
			<rect y="61.1" class="st4" width="11.5" height="172.5"/>
			<path class="st4" d="M296.9,131.3c-1.6,0.5-3.4,0.6-5.6,0.6h5.6h5.9c8.6,0,12.8-3,12.8-15.4l0,0V99.2c0-12-4-14.8-12.6-14.9l0,0
				h-11.6c2.1,0,4,0.1,5.6,0.6c4.2,1.1,6.5,4.1,7,10.9c0.1,1,0.1,2.1,0.1,3.4v17.4C304,125.9,301.6,129.9,296.9,131.3z"/>
			<rect x="247.9" y="61.1" class="st4" width="11.5" height="172.5"/>
			<path class="st4" d="M296.9,154.7H293c1.4,0,2.6,0,3.9,0.1c7.9,0.6,12.1,3.5,13.1,11.6c0.2,1.5,0.2,3.1,0.2,4.9v20.8
				c0,12.8-4.1,17-13.5,17.9c-1.2,0.1-2.5,0.1-3.9,0.1h3.9h7.6c12.1,0,17.4-3.6,17.4-18v-9.4v-11.4c0-13.5-5.3-16.8-17.4-16.8h-7.5
				V154.7z"/>
			<polygon class="st4" points="111.2,445.3 122.8,445.3 122.8,445.3 151,284.2 153,272.8 141.6,272.8 			"/>
			<polygon class="st4" points="184.4,376.3 178,338.1 172.2,304.1 170.2,315.9 166.5,338.1 172.2,372.1 172.9,376.3 180.4,376.3 
							"/>
			<polygon class="st4" points="176.8,399.3 178.6,410.8 184.4,445.3 191.9,445.3 195.8,445.3 188.1,399.3 			"/>
			<path class="st4" d="M431.6,271.9c-1.9-0.1-3.8-0.3-5.8-0.3c-36,0-51,18.4-51,52.2v70c0,21.4,6,36.6,19.2,44.9
				c7.9,4.9,18.4,7.4,31.7,7.4c2,0,3.9-0.1,5.6-0.2c-31.7-1.9-45.2-19.9-45.2-52l0,0v-70C386.2,291.9,399.8,273.8,431.6,271.9z"/>
			<path class="st4" d="M443.2,297.1c-1.9-0.2-3.9-0.4-6-0.4c-2,0-3.9,0.1-5.8,0.2c2.1,0.3,4,0.6,5.8,1.2c5.4,1.8,9,5.3,11.1,11.4
				c1.5,4.4,2.2,10.1,2.2,17.6v63.8c0,17.8-4.2,25.9-13.5,29c-1.7,0.6-3.6,1-5.8,1.2c1.8,0.3,3.6,0.3,5.8,0.3c2,0,4-0.1,5.8-0.3
				c13.2-1.5,19.2-9.1,19.2-30.1v-52.4v-11.4C462.2,306.3,456.4,298.6,443.2,297.1z"/>
			<rect x="147.5" y="61.1" class="st4" width="11.5" height="172.5"/>
			<polygon class="st4" points="0.4,445.3 11.9,445.3 11.9,445.3 11.9,284.2 11.9,272.8 0.4,272.8 			"/>
			<path class="st4" d="M297,343.1c-1.6,0.5-3.4,0.6-5.6,0.6h5.6h5.9c8.6,0,12.8-3,12.8-15.5v-5.9v-11.5c0-12-4-14.8-12.6-14.9l0,0
				h-11.5c2.1,0,4,0.1,5.6,0.6c4.2,1.1,6.5,4.1,7,10.9c0.1,1,0.1,2.1,0.1,3.4v17.4C304.1,337.7,301.9,341.7,297,343.1z"/>
			<polygon class="st4" points="248,445.3 259.5,445.3 259.5,445.3 259.5,284.2 259.5,272.8 248,272.8 			"/>
			<path class="st4" d="M304.6,366.3L304.6,366.3h-11.5c1.4,0,2.6,0,3.9,0.1c7.9,0.6,12.1,3.5,13.1,11.6c0.3,1.5,0.3,3.1,0.3,4.9
				v20.8c0,12.8-4.1,17-13.5,17.9c-1.2,0.1-2.5,0.1-3.9,0.1h3.9h7.6c12,0,17.4-3.6,17.4-18l0,0v-20.8
				C322,369.6,316.6,366.3,304.6,366.3z"/>
			<polygon class="st4" points="408.5,233.6 408.5,72.6 408.5,61.1 397,61.1 397,233.6 			"/>
			<polygon class="st4" points="438,55.2 438.6,53.6 442.5,42.1 431,42.1 426.5,55.2 437.9,55.2 			"/>
		</g>
		<g>
			<polygon class="st5" points="73.9,233.6 85.4,233.6 85.4,233.6 85.4,208.2 85.4,208.2 73.9,208.2 49,208.2 37.5,208.2 37.5,61.1 
				37.5,61.1 26,61.1 11.5,61.1 11.5,233.6 11.5,233.6 22.9,233.6 			"/>
			<path class="st5" d="M293.1,233.6h11.5c31.5,0,43.4-11.4,43.4-35.4v-18v-11.5c0-11.1-3.6-19.1-12.2-23.8
				c-4.9-2.6-11.4-4.2-19.6-4.6c18.4-1,25.4-9.4,25.4-22.9v-13.4V92.7c0-22-10.1-31.8-37.4-31.8l0,0h-11.6h-33.2v172.5l0,0h11.5
				h22.4V233.6z M315.4,99.2v17.4l0,0c0,12.5-4,15.4-12.8,15.4h-5.9h-5.5h-5.9V95.8V84.3h5.9h11.5l0,0
				C311.4,84.4,315.4,87.2,315.4,99.2z M285.4,166.1v-11.5h7.6h3.9h7.6c12.1,0,17.4,3.1,17.4,16.7v11.4v9.4c0,14.4-5.2,18-17.4,18
				h-7.6H293h-7.6V166.1z"/>
			<path class="st5" d="M179.9,272.8h-15.4H153l-2,11.5l-28.3,161h11.5h2.9h11.2h0.1l5.8-34.5l1.9-11.5h11.5h9h11.5l7.6,45.9h11.5
				h2.9h7.4h4.1l-30.2-172.5h-11.5V272.8z M184.4,376.3h-4h-7.5h-1.4H160l6.5-38.1l3.8-22.2l2-11.7l5.6,34L184.4,376.3z"/>
			<path class="st5" d="M443.6,271.9c-2-0.1-4.1-0.3-6.2-0.3c-2,0-3.9,0.1-5.8,0.3c-31.9,1.9-45.3,20.1-45.3,52.1v70l0,0
				c0,32.1,13.4,50.1,45.3,52c1.9,0.1,3.8,0.2,5.8,0.2s3.9-0.1,5.6-0.2c31.5-1.9,45.5-20.1,45.5-52.1v-58.6v-11.5
				C488.5,292.2,475,273.9,443.6,271.9z M443,421.1c-1.8,0.3-3.8,0.3-5.8,0.3c-2,0-3.9-0.1-5.8-0.3c-13.1-1.5-19.2-9.1-19.2-30.1
				v-52.2v-11.5c0-20.9,6.1-28.6,19.2-30.1c1.8-0.3,3.6-0.3,5.8-0.3c2.1,0,4.1,0.1,6,0.4c13.1,1.6,19,9.4,19,30.1v11.4v52.4
				C462.2,411.9,456.4,419.6,443,421.1z"/>
			<polygon class="st5" points="170.5,233.6 173.6,233.6 185,233.6 185,72.6 185,61.1 185,61.1 173.6,61.1 159,61.1 159,233.6 
				159,233.6 			"/>
			<polygon class="st5" points="49.4,419.9 37.9,419.9 37.9,419.9 37.9,284.2 37.9,272.8 26.4,272.8 23.2,272.8 11.9,272.8 
				11.9,284.2 11.9,445.3 23.2,445.3 74.2,445.3 85.8,445.3 85.8,431.3 85.8,419.9 85.8,419.9 74.2,419.9 			"/>
			<path class="st5" d="M335.9,356.7c-4.9-2.6-11.4-4.2-19.6-4.6c18.4-1,25.4-9.2,25.4-22.9l0,0v-24.7c0-22-10.1-31.8-37.5-31.8
				h-11.5h-21.8h-11.5v11.5v161h11.5h22.4h11.5c31.5,0,43.4-11.4,43.4-35.4v-18v-11.5C348.2,369.4,344.5,361.4,335.9,356.7z
				 M285.5,296.1h5.9h11.5l0,0c8.6,0,12.6,2.8,12.6,14.9v11.5v5.9c0,12.5-4,15.5-12.8,15.5h-5.9h-5.6h-5.9l0,0v-47.8H285.5z
				 M285.5,366.3h7.6h11.5h0.1c12,0,17.2,3.2,17.2,16.8v20.8l0,0c0,14.4-5.2,18-17.4,18H297h-3.9h-7.6l0,0V366.3z"/>
			<polygon class="st5" points="477.1,61.1 458.1,61.1 435.9,61.1 408.5,61.1 408.5,72.6 408.5,233.6 419.9,233.6 477.1,233.6 
				488.5,233.6 488.5,219.7 488.5,208.2 488.5,208.2 477.1,208.2 446,208.2 434.5,208.2 434.5,208.2 434.5,156.9 475.4,156.9 
				486.9,156.9 486.9,143.9 486.9,132.4 486.9,132.4 475.4,132.4 446,132.4 434.5,132.4 434.5,132.4 434.5,86.4 446,86.4 
				477.1,86.4 488.5,86.4 488.5,72.6 488.5,61.1 488.5,61.1 			"/>
			<polygon class="st5" points="449.5,55.2 456.2,55.2 458,53.6 470.2,42.1 458.8,42.1 453.9,42.1 442.5,42.1 438.6,53.6 438,55.2 
				444.8,55.2 			"/>
		</g>
	</g>
	<g>
		<path class="st0" d="M304,116.6V99.2c0-1.2,0-2.3-0.1-3.4c-0.4,0-0.8,0-1.1,0h-5.9v35.5C301.6,129.9,304,125.9,304,116.6z"/>
		<path class="st0" d="M423.8,390.9c0,17.8,4.4,25.9,13.5,29c9.2-3,13.5-11.2,13.5-29v-63.8c0-7.4-0.8-13.1-2.2-17.6
			c-3.1-1-6.9-1.4-11.2-1.4c-4.2,0-8,0.4-11.1,1.5c-1.6,4.4-2.4,10.1-2.4,17.6V390.9z"/>
		<path class="st0" d="M304.1,328.2v-17.4c0-1.2,0-2.2-0.1-3.4c-0.4,0-0.8,0-1.1,0H297v35.5C301.9,341.7,304.1,337.7,304.1,328.2z"
			/>
		<polygon class="st0" points="172.9,376.3 172.2,372.1 171.5,376.3 		"/>
		<path class="st0" d="M310.2,192.1v-20.8c0-1.9-0.1-3.5-0.2-4.9c-1.6-0.2-3.5-0.4-5.6-0.4h-7.6v43.9
			C306.1,209.2,310.2,204.8,310.2,192.1z"/>
		<path class="st1" d="M310.1,378.1c-1.1-8.1-5.2-11-13.1-11.6v11.4h7.6C306.6,377.8,308.5,377.9,310.1,378.1z"/>
		<g>
			<polygon class="st1" points="22.9,233.6 11.5,233.6 11.5,245.1 85.4,245.1 85.4,233.6 			"/>
			<path class="st1" d="M338.4,141.8c0.8-1.1,1.4-2.5,1.8-3.8c-3.4,1.4-7.6,2.1-12.6,2.4C331.5,140.7,335.1,141.1,338.4,141.8z"/>
			<path class="st1" d="M270.8,233.6L270.8,233.6h-11.5v11.5h45.2c21.8,0,34.1-5.5,39.8-16.7c-6.8,3.5-16,5.2-28.2,5.2H270.8z"/>
			<path class="st1" d="M310,166.4c-1.1-8.1-5.2-11-13.1-11.6v11.4h7.6C306.5,166.1,308.4,166.2,310,166.4z"/>
			<path class="st1" d="M303.9,95.8c-0.5-6.8-2.8-9.8-7-10.9v10.9h5.9C303.1,95.8,303.5,95.8,303.9,95.8z"/>
			<polygon class="st1" points="207.2,445.3 195.8,445.3 191.9,445.3 193.8,456.7 219.5,456.7 217.5,445.3 210.1,445.3 			"/>
			<polygon class="st1" points="167.6,399.3 165.8,410.8 178.6,410.8 176.8,399.3 			"/>
			<polygon class="st1" points="134.2,445.3 122.8,445.3 122.8,445.3 120.8,456.7 146.5,456.7 148.4,445.3 137.1,445.3 			"/>
			<path class="st1" d="M448.5,309.6c-2.1-6-5.9-9.6-11.1-11.4c-5.4,1.8-9,5.4-11.2,11.4c3.1-1,6.9-1.5,11.1-1.5
				C441.6,308.2,445.4,308.6,448.5,309.6z"/>
			<path class="st1" d="M443,446.2c-1.9,0.1-3.8,0.2-5.6,0.2c-2,0-3.9-0.1-5.8-0.2c-1.9,0.1-3.8,0.2-5.6,0.2
				c-13.4,0-23.8-2.5-31.8-7.4c7.9,12.4,21.8,18.9,43.1,18.9c21.2,0,35.4-6.6,43.4-19.1c-8,5-18.5,7.6-31.9,7.6
				C446.8,446.3,444.9,446.3,443,446.2z"/>
			<polygon class="st1" points="170.5,233.6 159,233.6 159,245.1 185,245.1 185,233.6 			"/>
			<polygon class="st1" points="74.2,445.3 23.2,445.3 11.9,445.3 11.9,445.3 11.9,456.7 85.8,456.7 85.8,445.3 85.8,445.3 			"/>
			<path class="st1" d="M304,307.6c-0.5-6.8-2.8-9.8-7-10.9v10.9h5.9C303.2,307.6,303.6,307.6,304,307.6z"/>
			<path class="st1" d="M304.8,445.3h-11.5h-22.4h-11.5l0,0v11.5h45.2c21.8,0,34.1-5.5,39.8-16.8c-6.8,3.5-16,5.2-28.3,5.2
				L304.8,445.3L304.8,445.3z"/>
			<path class="st1" d="M338.5,353.6c0.8-1.1,1.2-2.5,1.7-3.8c-3.4,1.4-7.6,2.1-12.6,2.4C331.8,352.3,335.4,352.8,338.5,353.6z"/>
			<polygon class="st1" points="446,86.4 446,97.9 488.5,97.9 488.5,86.4 477.1,86.4 			"/>
			<rect x="446" y="156.9" class="st1" width="40.9" height="11.5"/>
			<polygon class="st1" points="419.9,233.6 408.5,233.6 408.5,233.6 408.5,245.1 488.5,245.1 488.5,233.6 			"/>
			<polygon class="st1" points="464.5,55.2 456.2,55.2 456.2,55.2 444.8,55.2 438,55.2 437.9,55.2 435.9,61.1 458.1,61.1 			"/>
		</g>
		<polygon class="st2" points="73.9,233.6 22.9,233.6 22.9,233.6 85.4,233.6 85.4,233.6 		"/>
		<path class="st2" d="M296.9,95.8V84.9c-1.6-0.4-3.4-0.6-5.6-0.6h-5.9v11.5H296.9z"/>
		<path class="st2" d="M296.9,166.1v-11.4c-1.2-0.1-2.5-0.1-3.9-0.1h-7.6v11.5L296.9,166.1L296.9,166.1z"/>
		<path class="st2" d="M348,198.3c0,23.9-11.9,35.4-43.4,35.4h-11.5h-22.4l0,0H316c12.2,0,21.5-1.7,28.2-5.2
			c2.5-5,3.6-11.2,3.6-18.6v-11.5H348z"/>
		<path class="st2" d="M341.5,104.3L341.5,104.3v13.3c0,13.5-7,21.7-25.4,22.9c8.4,0.4,14.7,2,19.6,4.6c1-1,1.9-2,2.6-3.3
			c-3.2-0.8-6.8-1.1-10.9-1.4c5-0.2,9.2-1.1,12.6-2.4c0.9-2.6,1.4-5.6,1.4-9L341.5,104.3L341.5,104.3z"/>
		<polygon class="st2" points="156.2,399.3 154.2,410.8 165.8,410.8 167.6,399.3 		"/>
		<path class="st2" d="M412.4,327.2v11.5c0-17.8,4.4-26,13.8-29c2.1-6,5.9-9.6,11.2-11.4c-1.8-0.6-3.6-1-5.8-1.2
			C418.4,298.6,412.4,306.3,412.4,327.2z"/>
		<path class="st2" d="M488.5,394.1c0,32-14,50.1-45.5,52.1c1.9,0.1,3.8,0.2,5.8,0.2c13.4,0,23.9-2.6,31.9-7.6
			c5.4-8.4,7.9-19.5,7.9-33.1V394.1z"/>
		<polygon class="st2" points="173.6,233.6 170.5,233.6 170.5,233.6 185,233.6 185,233.6 		"/>
		<rect x="85.8" y="431.3" class="st2" width="0" height="13.9"/>
		<rect x="37.9" y="284.2" class="st2" width="0" height="135.6"/>
		<path class="st2" d="M285.5,377.8H297v-11.4c-1.2-0.1-2.5-0.1-3.9-0.1h-7.6"/>
		<path class="st2" d="M297,307.6v-10.9c-1.6-0.4-3.4-0.6-5.6-0.6h-5.9v47.6l0,0v-36.1H297z"/>
		<path class="st2" d="M348.2,409.9c0,23.9-11.9,35.4-43.4,35.4h11.5c12.2,0,21.5-1.8,28.2-5.2c2.5-5,3.6-11.2,3.6-18.6V409.9z"/>
		<path class="st2" d="M341.6,329.3c0,13.5-7,21.7-25.4,22.9c8.4,0.4,14.8,2,19.6,4.6c1-1,1.9-2,2.6-3.3c-3.3-0.8-6.8-1.1-10.9-1.4
			c5-0.2,9.2-1.1,12.6-2.4c0.9-2.6,1.4-5.6,1.4-9L341.6,329.3L341.6,329.3z"/>
		<polygon class="st2" points="477.1,233.6 419.9,233.6 419.9,233.6 488.5,233.6 488.5,233.6 		"/>
		<rect x="434.5" y="86.4" class="st2" width="11.5" height="11.5"/>
		<rect x="434.5" y="156.9" class="st2" width="11.5" height="11.5"/>
		<path class="st2" d="M434.5,156.9"/>
		<g>
			<rect x="37.5" y="61.1" class="st3" width="11.5" height="147.1"/>
			<polygon class="st3" points="96.8,208.2 85.4,208.2 85.4,233.6 85.4,233.6 85.4,233.6 96.8,233.6 			"/>
			<path class="st3" d="M296.9,131.3V95.8h-11.5v36.1h5.9C293.4,132.1,295.2,131.8,296.9,131.3z"/>
			<path class="st3" d="M341.5,92.8v11.4l0,0v24.8c0,3.3-0.4,6.2-1.4,9c9.1-3.5,12.8-10.6,12.8-20.4V92.8c0-22-10.1-31.8-37.5-31.8
				H304C331.2,61.1,341.5,70.8,341.5,92.8z"/>
			<path class="st3" d="M296.9,209.9v-43.9h-11.5v44h7.6C294.4,210.1,295.6,210.1,296.9,209.9z"/>
			<path class="st3" d="M335.8,145.1c8.6,4.6,12.2,12.7,12.2,23.8v11.5v18v11.5c0,7.4-1.1,13.6-3.6,18.6
				c10.6-5.5,15.1-15.5,15.1-30.1v-29.4c0-14.4-6-23.6-21.1-27C337.6,143.1,336.8,144.1,335.8,145.1z"/>
			<polygon class="st3" points="148.6,445.3 160,445.3 165.8,410.8 154.2,410.8 			"/>
			<polygon class="st3" points="160,376.3 171.5,376.3 172.2,372.1 166.5,338.1 			"/>
			<polygon class="st3" points="191.4,272.8 221.6,445.3 233.1,445.3 202.8,272.8 			"/>
			<path class="st3" d="M448.8,271.7c-1.8,0-3.5,0.1-5.2,0.3c31.5,2.1,45,20.2,45,52.1v11.5v58.6v11.5c0,13.6-2.5,24.8-7.9,33.1
				c13.2-8.4,19.4-23.5,19.4-44.6v-70C500,290.2,484.8,271.7,448.8,271.7z"/>
			<path class="st3" d="M423.8,390.9v-63.8c0-7.4,0.8-13.1,2.4-17.6c-9.4,3-13.8,11.2-13.8,29v52.2c0,21.1,6.1,28.6,19.2,30.1
				c2.1-0.2,4-0.6,5.8-1.2C428.1,416.8,423.8,408.7,423.8,390.9z"/>
			<polygon class="st3" points="196.5,61.1 185,61.1 185,72.6 185,233.6 185,233.6 196.5,233.6 			"/>
			<polygon class="st3" points="85.8,431.3 85.8,431.3 85.8,445.3 97.1,445.3 97.1,419.9 85.8,419.9 			"/>
			<polygon class="st3" points="37.9,284.2 37.9,284.2 37.9,419.9 49.4,419.9 49.4,272.8 37.9,272.8 			"/>
			<path class="st3" d="M338.5,353.6c-0.8,1.1-1.6,2.2-2.6,3.3c8.6,4.6,12.2,12.8,12.2,23.8v11.5l0,0v29.4c0,7.4-1.1,13.6-3.6,18.6
				c10.6-5.5,15.1-15.5,15.1-30.1v-29.4C359.6,366.2,353.6,356.9,338.5,353.6z"/>
			<path class="st3" d="M341.6,329.3L341.6,329.3v11.5c0,3.4-0.4,6.2-1.4,9c9.1-3.5,12.8-10.6,12.8-20.4v-24.7
				c0-22-10.1-31.8-37.5-31.8H304c27.2,0,37.5,9.7,37.5,31.8v24.6H341.6z"/>
			<path class="st3" d="M285.5,343.7h5.9c2.1,0,4-0.1,5.6-0.6v-35.5h-11.5V343.7z"/>
			<path class="st3" d="M285.5,421.8h7.6c1.4,0,2.6,0,3.9-0.1v-43.9h-11.5V421.8z"/>
			<rect x="434.5" y="168.4" class="st3" width="11.5" height="39.8"/>
			<polygon class="st3" points="488.5,219.7 488.5,233.6 488.5,233.6 500,233.6 500,208.2 488.5,208.2 			"/>
			<rect x="434.5" y="97.9" class="st3" width="11.5" height="34.5"/>
			<polygon class="st3" points="486.9,156.9 498.2,156.9 498.2,132.4 486.9,132.4 486.9,143.9 486.9,143.9 			"/>
			<polygon class="st3" points="488.5,61.1 488.5,72.6 488.5,86.4 500,86.4 500,61.1 			"/>
			<polygon class="st3" points="470.2,42.1 458,53.6 466.2,53.6 464.5,55.2 467.6,55.2 481.6,42.1 453.9,42.1 453.9,42.1 
				458.8,42.1 			"/>
		</g>
		<polygon class="st2" points="458,53.6 456.2,55.2 464.5,55.2 466.2,53.6 		"/>
		<g>
			<rect y="61.1" class="st4" width="11.5" height="172.5"/>
			<path class="st4" d="M296.9,131.3c-1.6,0.5-3.4,0.6-5.6,0.6h5.6h5.9c8.6,0,12.8-3,12.8-15.4l0,0V99.2c0-12-4-14.8-12.6-14.9l0,0
				h-11.6c2.1,0,4,0.1,5.6,0.6c4.2,1.1,6.5,4.1,7,10.9c0.1,1,0.1,2.1,0.1,3.4v17.4C304,125.9,301.6,129.9,296.9,131.3z"/>
			<rect x="247.9" y="61.1" class="st4" width="11.5" height="172.5"/>
			<path class="st4" d="M296.9,154.7H293c1.4,0,2.6,0,3.9,0.1c7.9,0.6,12.1,3.5,13.1,11.6c0.2,1.5,0.2,3.1,0.2,4.9v20.8
				c0,12.8-4.1,17-13.5,17.9c-1.2,0.1-2.5,0.1-3.9,0.1h3.9h7.6c12.1,0,17.4-3.6,17.4-18v-9.4v-11.4c0-13.5-5.3-16.8-17.4-16.8h-7.5
				V154.7z"/>
			<polygon class="st4" points="111.2,445.3 122.8,445.3 122.8,445.3 151,284.2 153,272.8 141.6,272.8 			"/>
			<polygon class="st4" points="184.4,376.3 178,338.1 172.2,304.1 170.2,315.9 166.5,338.1 172.2,372.1 172.9,376.3 180.4,376.3 
							"/>
			<polygon class="st4" points="176.8,399.3 178.6,410.8 184.4,445.3 191.9,445.3 195.8,445.3 188.1,399.3 			"/>
			<path class="st4" d="M431.6,271.9c-1.9-0.1-3.8-0.3-5.8-0.3c-36,0-51,18.4-51,52.2v70c0,21.4,6,36.6,19.2,44.9
				c7.9,4.9,18.4,7.4,31.7,7.4c2,0,3.9-0.1,5.6-0.2c-31.7-1.9-45.2-19.9-45.2-52l0,0v-70C386.2,291.9,399.8,273.8,431.6,271.9z"/>
			<path class="st4" d="M443.2,297.1c-1.9-0.2-3.9-0.4-6-0.4c-2,0-3.9,0.1-5.8,0.2c2.1,0.3,4,0.6,5.8,1.2c5.4,1.8,9,5.3,11.1,11.4
				c1.5,4.4,2.2,10.1,2.2,17.6v63.8c0,17.8-4.2,25.9-13.5,29c-1.7,0.6-3.6,1-5.8,1.2c1.8,0.3,3.6,0.3,5.8,0.3c2,0,4-0.1,5.8-0.3
				c13.2-1.5,19.2-9.1,19.2-30.1v-52.4v-11.4C462.2,306.3,456.4,298.6,443.2,297.1z"/>
			<rect x="147.5" y="61.1" class="st4" width="11.5" height="172.5"/>
			<polygon class="st4" points="0.4,445.3 11.9,445.3 11.9,445.3 11.9,284.2 11.9,272.8 0.4,272.8 			"/>
			<path class="st4" d="M297,343.1c-1.6,0.5-3.4,0.6-5.6,0.6h5.6h5.9c8.6,0,12.8-3,12.8-15.5v-5.9v-11.5c0-12-4-14.8-12.6-14.9l0,0
				h-11.5c2.1,0,4,0.1,5.6,0.6c4.2,1.1,6.5,4.1,7,10.9c0.1,1,0.1,2.1,0.1,3.4v17.4C304.1,337.7,301.9,341.7,297,343.1z"/>
			<polygon class="st4" points="248,445.3 259.5,445.3 259.5,445.3 259.5,284.2 259.5,272.8 248,272.8 			"/>
			<path class="st4" d="M304.6,366.3L304.6,366.3h-11.5c1.4,0,2.6,0,3.9,0.1c7.9,0.6,12.1,3.5,13.1,11.6c0.3,1.5,0.3,3.1,0.3,4.9
				v20.8c0,12.8-4.1,17-13.5,17.9c-1.2,0.1-2.5,0.1-3.9,0.1h3.9h7.6c12,0,17.4-3.6,17.4-18l0,0v-20.8
				C322,369.6,316.6,366.3,304.6,366.3z"/>
			<polygon class="st4" points="408.5,233.6 408.5,72.6 408.5,61.1 397,61.1 397,233.6 			"/>
			<polygon class="st4" points="438,55.2 438.6,53.6 442.5,42.1 431,42.1 426.5,55.2 437.9,55.2 			"/>
		</g>
		<g>
			<polygon class="st5" points="73.9,233.6 85.4,233.6 85.4,233.6 85.4,208.2 85.4,208.2 73.9,208.2 49,208.2 37.5,208.2 37.5,61.1 
				37.5,61.1 26,61.1 11.5,61.1 11.5,233.6 11.5,233.6 22.9,233.6 			"/>
			<path class="st5" d="M293.1,233.6h11.5c31.5,0,43.4-11.4,43.4-35.4v-18v-11.5c0-11.1-3.6-19.1-12.2-23.8
				c-4.9-2.6-11.4-4.2-19.6-4.6c18.4-1,25.4-9.4,25.4-22.9v-13.4V92.7c0-22-10.1-31.8-37.4-31.8l0,0h-11.6h-33.2v172.5l0,0h11.5
				h22.4V233.6z M315.4,99.2v17.4l0,0c0,12.5-4,15.4-12.8,15.4h-5.9h-5.5h-5.9V95.8V84.3h5.9h11.5l0,0
				C311.4,84.4,315.4,87.2,315.4,99.2z M285.4,166.1v-11.5h7.6h3.9h7.6c12.1,0,17.4,3.1,17.4,16.7v11.4v9.4c0,14.4-5.2,18-17.4,18
				h-7.6H293h-7.6V166.1z"/>
			<path class="st5" d="M179.9,272.8h-15.4H153l-2,11.5l-28.3,161h11.5h2.9h11.2h0.1l5.8-34.5l1.9-11.5h11.5h9h11.5l7.6,45.9h11.5
				h2.9h7.4h4.1l-30.2-172.5h-11.5V272.8z M184.4,376.3h-4h-7.5h-1.4H160l6.5-38.1l3.8-22.2l2-11.7l5.6,34L184.4,376.3z"/>
			<path class="st5" d="M443.6,271.9c-2-0.1-4.1-0.3-6.2-0.3c-2,0-3.9,0.1-5.8,0.3c-31.9,1.9-45.3,20.1-45.3,52.1v70l0,0
				c0,32.1,13.4,50.1,45.3,52c1.9,0.1,3.8,0.2,5.8,0.2s3.9-0.1,5.6-0.2c31.5-1.9,45.5-20.1,45.5-52.1v-58.6v-11.5
				C488.5,292.2,475,273.9,443.6,271.9z M443,421.1c-1.8,0.3-3.8,0.3-5.8,0.3c-2,0-3.9-0.1-5.8-0.3c-13.1-1.5-19.2-9.1-19.2-30.1
				v-52.2v-11.5c0-20.9,6.1-28.6,19.2-30.1c1.8-0.3,3.6-0.3,5.8-0.3c2.1,0,4.1,0.1,6,0.4c13.1,1.6,19,9.4,19,30.1v11.4v52.4
				C462.2,411.9,456.4,419.6,443,421.1z"/>
			<polygon class="st5" points="170.5,233.6 173.6,233.6 185,233.6 185,72.6 185,61.1 185,61.1 173.6,61.1 159,61.1 159,233.6 
				159,233.6 			"/>
			<polygon class="st5" points="49.4,419.9 37.9,419.9 37.9,419.9 37.9,284.2 37.9,272.8 26.4,272.8 23.2,272.8 11.9,272.8 
				11.9,284.2 11.9,445.3 23.2,445.3 74.2,445.3 85.8,445.3 85.8,431.3 85.8,419.9 85.8,419.9 74.2,419.9 			"/>
			<path class="st5" d="M335.9,356.7c-4.9-2.6-11.4-4.2-19.6-4.6c18.4-1,25.4-9.2,25.4-22.9l0,0v-24.7c0-22-10.1-31.8-37.5-31.8
				h-11.5h-21.8h-11.5v11.5v161h11.5h22.4h11.5c31.5,0,43.4-11.4,43.4-35.4v-18v-11.5C348.2,369.4,344.5,361.4,335.9,356.7z
				 M285.5,296.1h5.9h11.5l0,0c8.6,0,12.6,2.8,12.6,14.9v11.5v5.9c0,12.5-4,15.5-12.8,15.5h-5.9h-5.6h-5.9l0,0v-47.8H285.5z
				 M285.5,366.3h7.6h11.5h0.1c12,0,17.2,3.2,17.2,16.8v20.8l0,0c0,14.4-5.2,18-17.4,18H297h-3.9h-7.6l0,0V366.3z"/>
			<polygon class="st5" points="477.1,61.1 458.1,61.1 435.9,61.1 408.5,61.1 408.5,72.6 408.5,233.6 419.9,233.6 477.1,233.6 
				488.5,233.6 488.5,219.7 488.5,208.2 488.5,208.2 477.1,208.2 446,208.2 434.5,208.2 434.5,208.2 434.5,156.9 475.4,156.9 
				486.9,156.9 486.9,143.9 486.9,132.4 486.9,132.4 475.4,132.4 446,132.4 434.5,132.4 434.5,132.4 434.5,86.4 446,86.4 
				477.1,86.4 488.5,86.4 488.5,72.6 488.5,61.1 488.5,61.1 			"/>
			<polygon class="st5" points="449.5,55.2 456.2,55.2 458,53.6 470.2,42.1 458.8,42.1 453.9,42.1 442.5,42.1 438.6,53.6 438,55.2 
				444.8,55.2 			"/>
		</g>
	</g>
	<g>
		<path class="st0" d="M304,116.6V99.2c0-1.2,0-2.3-0.1-3.4c-0.4,0-0.8,0-1.1,0h-5.9v35.5C301.6,129.9,304,125.9,304,116.6z"/>
		<path class="st0" d="M423.8,390.9c0,17.8,4.4,25.9,13.5,29c9.2-3,13.5-11.2,13.5-29v-63.8c0-7.4-0.8-13.1-2.2-17.6
			c-3.1-1-6.9-1.4-11.2-1.4c-4.2,0-8,0.4-11.1,1.5c-1.6,4.4-2.4,10.1-2.4,17.6V390.9z"/>
		<path class="st0" d="M304.1,328.2v-17.4c0-1.2,0-2.2-0.1-3.4c-0.4,0-0.8,0-1.1,0H297v35.5C301.9,341.7,304.1,337.7,304.1,328.2z"
			/>
		<polygon class="st0" points="172.9,376.3 172.2,372.1 171.5,376.3 		"/>
		<path class="st0" d="M310.2,192.1v-20.8c0-1.9-0.1-3.5-0.2-4.9c-1.6-0.2-3.5-0.4-5.6-0.4h-7.6v43.9
			C306.1,209.2,310.2,204.8,310.2,192.1z"/>
		<path class="st1" d="M310.1,378.1c-1.1-8.1-5.2-11-13.1-11.6v11.4h7.6C306.6,377.8,308.5,377.9,310.1,378.1z"/>
		<g>
			<polygon class="st1" points="22.9,233.6 11.5,233.6 11.5,245.1 85.4,245.1 85.4,233.6 			"/>
			<path class="st1" d="M338.4,141.8c0.8-1.1,1.4-2.5,1.8-3.8c-3.4,1.4-7.6,2.1-12.6,2.4C331.5,140.7,335.1,141.1,338.4,141.8z"/>
			<path class="st1" d="M270.8,233.6L270.8,233.6h-11.5v11.5h45.2c21.8,0,34.1-5.5,39.8-16.7c-6.8,3.5-16,5.2-28.2,5.2H270.8z"/>
			<path class="st1" d="M310,166.4c-1.1-8.1-5.2-11-13.1-11.6v11.4h7.6C306.5,166.1,308.4,166.2,310,166.4z"/>
			<path class="st1" d="M303.9,95.8c-0.5-6.8-2.8-9.8-7-10.9v10.9h5.9C303.1,95.8,303.5,95.8,303.9,95.8z"/>
			<polygon class="st1" points="207.2,445.3 195.8,445.3 191.9,445.3 193.8,456.7 219.5,456.7 217.5,445.3 210.1,445.3 			"/>
			<polygon class="st1" points="167.6,399.3 165.8,410.8 178.6,410.8 176.8,399.3 			"/>
			<polygon class="st1" points="134.2,445.3 122.8,445.3 122.8,445.3 120.8,456.7 146.5,456.7 148.4,445.3 137.1,445.3 			"/>
			<path class="st1" d="M448.5,309.6c-2.1-6-5.9-9.6-11.1-11.4c-5.4,1.8-9,5.4-11.2,11.4c3.1-1,6.9-1.5,11.1-1.5
				C441.6,308.2,445.4,308.6,448.5,309.6z"/>
			<path class="st1" d="M443,446.2c-1.9,0.1-3.8,0.2-5.6,0.2c-2,0-3.9-0.1-5.8-0.2c-1.9,0.1-3.8,0.2-5.6,0.2
				c-13.4,0-23.8-2.5-31.8-7.4c7.9,12.4,21.8,18.9,43.1,18.9c21.2,0,35.4-6.6,43.4-19.1c-8,5-18.5,7.6-31.9,7.6
				C446.8,446.3,444.9,446.3,443,446.2z"/>
			<polygon class="st1" points="170.5,233.6 159,233.6 159,245.1 185,245.1 185,233.6 			"/>
			<polygon class="st1" points="74.2,445.3 23.2,445.3 11.9,445.3 11.9,445.3 11.9,456.7 85.8,456.7 85.8,445.3 85.8,445.3 			"/>
			<path class="st1" d="M304,307.6c-0.5-6.8-2.8-9.8-7-10.9v10.9h5.9C303.2,307.6,303.6,307.6,304,307.6z"/>
			<path class="st1" d="M304.8,445.3h-11.5h-22.4h-11.5l0,0v11.5h45.2c21.8,0,34.1-5.5,39.8-16.8c-6.8,3.5-16,5.2-28.3,5.2
				L304.8,445.3L304.8,445.3z"/>
			<path class="st1" d="M338.5,353.6c0.8-1.1,1.2-2.5,1.7-3.8c-3.4,1.4-7.6,2.1-12.6,2.4C331.8,352.3,335.4,352.8,338.5,353.6z"/>
			<polygon class="st1" points="446,86.4 446,97.9 488.5,97.9 488.5,86.4 477.1,86.4 			"/>
			<rect x="446" y="156.9" class="st1" width="40.9" height="11.5"/>
			<polygon class="st1" points="419.9,233.6 408.5,233.6 408.5,233.6 408.5,245.1 488.5,245.1 488.5,233.6 			"/>
			<polygon class="st1" points="464.5,55.2 456.2,55.2 456.2,55.2 444.8,55.2 438,55.2 437.9,55.2 435.9,61.1 458.1,61.1 			"/>
		</g>
		<polygon class="st2" points="73.9,233.6 22.9,233.6 22.9,233.6 85.4,233.6 85.4,233.6 		"/>
		<path class="st2" d="M296.9,95.8V84.9c-1.6-0.4-3.4-0.6-5.6-0.6h-5.9v11.5H296.9z"/>
		<path class="st2" d="M296.9,166.1v-11.4c-1.2-0.1-2.5-0.1-3.9-0.1h-7.6v11.5L296.9,166.1L296.9,166.1z"/>
		<path class="st2" d="M348,198.3c0,23.9-11.9,35.4-43.4,35.4h-11.5h-22.4l0,0H316c12.2,0,21.5-1.7,28.2-5.2
			c2.5-5,3.6-11.2,3.6-18.6v-11.5H348z"/>
		<path class="st2" d="M341.5,104.3L341.5,104.3v13.3c0,13.5-7,21.7-25.4,22.9c8.4,0.4,14.7,2,19.6,4.6c1-1,1.9-2,2.6-3.3
			c-3.2-0.8-6.8-1.1-10.9-1.4c5-0.2,9.2-1.1,12.6-2.4c0.9-2.6,1.4-5.6,1.4-9L341.5,104.3L341.5,104.3z"/>
		<polygon class="st2" points="156.2,399.3 154.2,410.8 165.8,410.8 167.6,399.3 		"/>
		<path class="st2" d="M412.4,327.2v11.5c0-17.8,4.4-26,13.8-29c2.1-6,5.9-9.6,11.2-11.4c-1.8-0.6-3.6-1-5.8-1.2
			C418.4,298.6,412.4,306.3,412.4,327.2z"/>
		<path class="st2" d="M488.5,394.1c0,32-14,50.1-45.5,52.1c1.9,0.1,3.8,0.2,5.8,0.2c13.4,0,23.9-2.6,31.9-7.6
			c5.4-8.4,7.9-19.5,7.9-33.1V394.1z"/>
		<polygon class="st2" points="173.6,233.6 170.5,233.6 170.5,233.6 185,233.6 185,233.6 		"/>
		<rect x="85.8" y="431.3" class="st2" width="0" height="13.9"/>
		<rect x="37.9" y="284.2" class="st2" width="0" height="135.6"/>
		<path class="st2" d="M285.5,377.8H297v-11.4c-1.2-0.1-2.5-0.1-3.9-0.1h-7.6"/>
		<path class="st2" d="M297,307.6v-10.9c-1.6-0.4-3.4-0.6-5.6-0.6h-5.9v47.6l0,0v-36.1H297z"/>
		<path class="st2" d="M348.2,409.9c0,23.9-11.9,35.4-43.4,35.4h11.5c12.2,0,21.5-1.8,28.2-5.2c2.5-5,3.6-11.2,3.6-18.6V409.9z"/>
		<path class="st2" d="M341.6,329.3c0,13.5-7,21.7-25.4,22.9c8.4,0.4,14.8,2,19.6,4.6c1-1,1.9-2,2.6-3.3c-3.3-0.8-6.8-1.1-10.9-1.4
			c5-0.2,9.2-1.1,12.6-2.4c0.9-2.6,1.4-5.6,1.4-9L341.6,329.3L341.6,329.3z"/>
		<polygon class="st2" points="477.1,233.6 419.9,233.6 419.9,233.6 488.5,233.6 488.5,233.6 		"/>
		<rect x="434.5" y="86.4" class="st2" width="11.5" height="11.5"/>
		<rect x="434.5" y="156.9" class="st2" width="11.5" height="11.5"/>
		<path class="st2" d="M434.5,156.9"/>
		<g>
			<rect x="37.5" y="61.1" class="st3" width="11.5" height="147.1"/>
			<polygon class="st3" points="96.8,208.2 85.4,208.2 85.4,233.6 85.4,233.6 85.4,233.6 96.8,233.6 			"/>
			<path class="st3" d="M296.9,131.3V95.8h-11.5v36.1h5.9C293.4,132.1,295.2,131.8,296.9,131.3z"/>
			<path class="st3" d="M341.5,92.8v11.4l0,0v24.8c0,3.3-0.4,6.2-1.4,9c9.1-3.5,12.8-10.6,12.8-20.4V92.8c0-22-10.1-31.8-37.5-31.8
				H304C331.2,61.1,341.5,70.8,341.5,92.8z"/>
			<path class="st3" d="M296.9,209.9v-43.9h-11.5v44h7.6C294.4,210.1,295.6,210.1,296.9,209.9z"/>
			<path class="st3" d="M335.8,145.1c8.6,4.6,12.2,12.7,12.2,23.8v11.5v18v11.5c0,7.4-1.1,13.6-3.6,18.6
				c10.6-5.5,15.1-15.5,15.1-30.1v-29.4c0-14.4-6-23.6-21.1-27C337.6,143.1,336.8,144.1,335.8,145.1z"/>
			<polygon class="st3" points="148.6,445.3 160,445.3 165.8,410.8 154.2,410.8 			"/>
			<polygon class="st3" points="160,376.3 171.5,376.3 172.2,372.1 166.5,338.1 			"/>
			<polygon class="st3" points="191.4,272.8 221.6,445.3 233.1,445.3 202.8,272.8 			"/>
			<path class="st3" d="M448.8,271.7c-1.8,0-3.5,0.1-5.2,0.3c31.5,2.1,45,20.2,45,52.1v11.5v58.6v11.5c0,13.6-2.5,24.8-7.9,33.1
				c13.2-8.4,19.4-23.5,19.4-44.6v-70C500,290.2,484.8,271.7,448.8,271.7z"/>
			<path class="st3" d="M423.8,390.9v-63.8c0-7.4,0.8-13.1,2.4-17.6c-9.4,3-13.8,11.2-13.8,29v52.2c0,21.1,6.1,28.6,19.2,30.1
				c2.1-0.2,4-0.6,5.8-1.2C428.1,416.8,423.8,408.7,423.8,390.9z"/>
			<polygon class="st3" points="196.5,61.1 185,61.1 185,72.6 185,233.6 185,233.6 196.5,233.6 			"/>
			<polygon class="st3" points="85.8,431.3 85.8,431.3 85.8,445.3 97.1,445.3 97.1,419.9 85.8,419.9 			"/>
			<polygon class="st3" points="37.9,284.2 37.9,284.2 37.9,419.9 49.4,419.9 49.4,272.8 37.9,272.8 			"/>
			<path class="st3" d="M338.5,353.6c-0.8,1.1-1.6,2.2-2.6,3.3c8.6,4.6,12.2,12.8,12.2,23.8v11.5l0,0v29.4c0,7.4-1.1,13.6-3.6,18.6
				c10.6-5.5,15.1-15.5,15.1-30.1v-29.4C359.6,366.2,353.6,356.9,338.5,353.6z"/>
			<path class="st3" d="M341.6,329.3L341.6,329.3v11.5c0,3.4-0.4,6.2-1.4,9c9.1-3.5,12.8-10.6,12.8-20.4v-24.7
				c0-22-10.1-31.8-37.5-31.8H304c27.2,0,37.5,9.7,37.5,31.8v24.6H341.6z"/>
			<path class="st3" d="M285.5,343.7h5.9c2.1,0,4-0.1,5.6-0.6v-35.5h-11.5V343.7z"/>
			<path class="st3" d="M285.5,421.8h7.6c1.4,0,2.6,0,3.9-0.1v-43.9h-11.5V421.8z"/>
			<rect x="434.5" y="168.4" class="st3" width="11.5" height="39.8"/>
			<polygon class="st3" points="488.5,219.7 488.5,233.6 488.5,233.6 500,233.6 500,208.2 488.5,208.2 			"/>
			<rect x="434.5" y="97.9" class="st3" width="11.5" height="34.5"/>
			<polygon class="st3" points="486.9,156.9 498.2,156.9 498.2,132.4 486.9,132.4 486.9,143.9 486.9,143.9 			"/>
			<polygon class="st3" points="488.5,61.1 488.5,72.6 488.5,86.4 500,86.4 500,61.1 			"/>
			<polygon class="st3" points="470.2,42.1 458,53.6 466.2,53.6 464.5,55.2 467.6,55.2 481.6,42.1 453.9,42.1 453.9,42.1 
				458.8,42.1 			"/>
		</g>
		<polygon class="st2" points="458,53.6 456.2,55.2 464.5,55.2 466.2,53.6 		"/>
		<g>
			<rect y="61.1" class="st4" width="11.5" height="172.5"/>
			<path class="st4" d="M296.9,131.3c-1.6,0.5-3.4,0.6-5.6,0.6h5.6h5.9c8.6,0,12.8-3,12.8-15.4l0,0V99.2c0-12-4-14.8-12.6-14.9l0,0
				h-11.6c2.1,0,4,0.1,5.6,0.6c4.2,1.1,6.5,4.1,7,10.9c0.1,1,0.1,2.1,0.1,3.4v17.4C304,125.9,301.6,129.9,296.9,131.3z"/>
			<rect x="247.9" y="61.1" class="st4" width="11.5" height="172.5"/>
			<path class="st4" d="M296.9,154.7H293c1.4,0,2.6,0,3.9,0.1c7.9,0.6,12.1,3.5,13.1,11.6c0.2,1.5,0.2,3.1,0.2,4.9v20.8
				c0,12.8-4.1,17-13.5,17.9c-1.2,0.1-2.5,0.1-3.9,0.1h3.9h7.6c12.1,0,17.4-3.6,17.4-18v-9.4v-11.4c0-13.5-5.3-16.8-17.4-16.8h-7.5
				V154.7z"/>
			<polygon class="st4" points="111.2,445.3 122.8,445.3 122.8,445.3 151,284.2 153,272.8 141.6,272.8 			"/>
			<polygon class="st4" points="184.4,376.3 178,338.1 172.2,304.1 170.2,315.9 166.5,338.1 172.2,372.1 172.9,376.3 180.4,376.3 
							"/>
			<polygon class="st4" points="176.8,399.3 178.6,410.8 184.4,445.3 191.9,445.3 195.8,445.3 188.1,399.3 			"/>
			<path class="st4" d="M431.6,271.9c-1.9-0.1-3.8-0.3-5.8-0.3c-36,0-51,18.4-51,52.2v70c0,21.4,6,36.6,19.2,44.9
				c7.9,4.9,18.4,7.4,31.7,7.4c2,0,3.9-0.1,5.6-0.2c-31.7-1.9-45.2-19.9-45.2-52l0,0v-70C386.2,291.9,399.8,273.8,431.6,271.9z"/>
			<path class="st4" d="M443.2,297.1c-1.9-0.2-3.9-0.4-6-0.4c-2,0-3.9,0.1-5.8,0.2c2.1,0.3,4,0.6,5.8,1.2c5.4,1.8,9,5.3,11.1,11.4
				c1.5,4.4,2.2,10.1,2.2,17.6v63.8c0,17.8-4.2,25.9-13.5,29c-1.7,0.6-3.6,1-5.8,1.2c1.8,0.3,3.6,0.3,5.8,0.3c2,0,4-0.1,5.8-0.3
				c13.2-1.5,19.2-9.1,19.2-30.1v-52.4v-11.4C462.2,306.3,456.4,298.6,443.2,297.1z"/>
			<rect x="147.5" y="61.1" class="st4" width="11.5" height="172.5"/>
			<polygon class="st4" points="0.4,445.3 11.9,445.3 11.9,445.3 11.9,284.2 11.9,272.8 0.4,272.8 			"/>
			<path class="st4" d="M297,343.1c-1.6,0.5-3.4,0.6-5.6,0.6h5.6h5.9c8.6,0,12.8-3,12.8-15.5v-5.9v-11.5c0-12-4-14.8-12.6-14.9l0,0
				h-11.5c2.1,0,4,0.1,5.6,0.6c4.2,1.1,6.5,4.1,7,10.9c0.1,1,0.1,2.1,0.1,3.4v17.4C304.1,337.7,301.9,341.7,297,343.1z"/>
			<polygon class="st4" points="248,445.3 259.5,445.3 259.5,445.3 259.5,284.2 259.5,272.8 248,272.8 			"/>
			<path class="st4" d="M304.6,366.3L304.6,366.3h-11.5c1.4,0,2.6,0,3.9,0.1c7.9,0.6,12.1,3.5,13.1,11.6c0.3,1.5,0.3,3.1,0.3,4.9
				v20.8c0,12.8-4.1,17-13.5,17.9c-1.2,0.1-2.5,0.1-3.9,0.1h3.9h7.6c12,0,17.4-3.6,17.4-18l0,0v-20.8
				C322,369.6,316.6,366.3,304.6,366.3z"/>
			<polygon class="st4" points="408.5,233.6 408.5,72.6 408.5,61.1 397,61.1 397,233.6 			"/>
			<polygon class="st4" points="438,55.2 438.6,53.6 442.5,42.1 431,42.1 426.5,55.2 437.9,55.2 			"/>
		</g>
		<g>
			<polygon class="st5" points="73.9,233.6 85.4,233.6 85.4,233.6 85.4,208.2 85.4,208.2 73.9,208.2 49,208.2 37.5,208.2 37.5,61.1 
				37.5,61.1 26,61.1 11.5,61.1 11.5,233.6 11.5,233.6 22.9,233.6 			"/>
			<path class="st5" d="M293.1,233.6h11.5c31.5,0,43.4-11.4,43.4-35.4v-18v-11.5c0-11.1-3.6-19.1-12.2-23.8
				c-4.9-2.6-11.4-4.2-19.6-4.6c18.4-1,25.4-9.4,25.4-22.9v-13.4V92.7c0-22-10.1-31.8-37.4-31.8l0,0h-11.6h-33.2v172.5l0,0h11.5
				h22.4V233.6z M315.4,99.2v17.4l0,0c0,12.5-4,15.4-12.8,15.4h-5.9h-5.5h-5.9V95.8V84.3h5.9h11.5l0,0
				C311.4,84.4,315.4,87.2,315.4,99.2z M285.4,166.1v-11.5h7.6h3.9h7.6c12.1,0,17.4,3.1,17.4,16.7v11.4v9.4c0,14.4-5.2,18-17.4,18
				h-7.6H293h-7.6V166.1z"/>
			<path class="st5" d="M179.9,272.8h-15.4H153l-2,11.5l-28.3,161h11.5h2.9h11.2h0.1l5.8-34.5l1.9-11.5h11.5h9h11.5l7.6,45.9h11.5
				h2.9h7.4h4.1l-30.2-172.5h-11.5V272.8z M184.4,376.3h-4h-7.5h-1.4H160l6.5-38.1l3.8-22.2l2-11.7l5.6,34L184.4,376.3z"/>
			<path class="st5" d="M443.6,271.9c-2-0.1-4.1-0.3-6.2-0.3c-2,0-3.9,0.1-5.8,0.3c-31.9,1.9-45.3,20.1-45.3,52.1v70l0,0
				c0,32.1,13.4,50.1,45.3,52c1.9,0.1,3.8,0.2,5.8,0.2s3.9-0.1,5.6-0.2c31.5-1.9,45.5-20.1,45.5-52.1v-58.6v-11.5
				C488.5,292.2,475,273.9,443.6,271.9z M443,421.1c-1.8,0.3-3.8,0.3-5.8,0.3c-2,0-3.9-0.1-5.8-0.3c-13.1-1.5-19.2-9.1-19.2-30.1
				v-52.2v-11.5c0-20.9,6.1-28.6,19.2-30.1c1.8-0.3,3.6-0.3,5.8-0.3c2.1,0,4.1,0.1,6,0.4c13.1,1.6,19,9.4,19,30.1v11.4v52.4
				C462.2,411.9,456.4,419.6,443,421.1z"/>
			<polygon class="st5" points="170.5,233.6 173.6,233.6 185,233.6 185,72.6 185,61.1 185,61.1 173.6,61.1 159,61.1 159,233.6 
				159,233.6 			"/>
			<polygon class="st5" points="49.4,419.9 37.9,419.9 37.9,419.9 37.9,284.2 37.9,272.8 26.4,272.8 23.2,272.8 11.9,272.8 
				11.9,284.2 11.9,445.3 23.2,445.3 74.2,445.3 85.8,445.3 85.8,431.3 85.8,419.9 85.8,419.9 74.2,419.9 			"/>
			<path class="st5" d="M335.9,356.7c-4.9-2.6-11.4-4.2-19.6-4.6c18.4-1,25.4-9.2,25.4-22.9l0,0v-24.7c0-22-10.1-31.8-37.5-31.8
				h-11.5h-21.8h-11.5v11.5v161h11.5h22.4h11.5c31.5,0,43.4-11.4,43.4-35.4v-18v-11.5C348.2,369.4,344.5,361.4,335.9,356.7z
				 M285.5,296.1h5.9h11.5l0,0c8.6,0,12.6,2.8,12.6,14.9v11.5v5.9c0,12.5-4,15.5-12.8,15.5h-5.9h-5.6h-5.9l0,0v-47.8H285.5z
				 M285.5,366.3h7.6h11.5h0.1c12,0,17.2,3.2,17.2,16.8v20.8l0,0c0,14.4-5.2,18-17.4,18H297h-3.9h-7.6l0,0V366.3z"/>
			<polygon class="st5" points="477.1,61.1 458.1,61.1 435.9,61.1 408.5,61.1 408.5,72.6 408.5,233.6 419.9,233.6 477.1,233.6 
				488.5,233.6 488.5,219.7 488.5,208.2 488.5,208.2 477.1,208.2 446,208.2 434.5,208.2 434.5,208.2 434.5,156.9 475.4,156.9 
				486.9,156.9 486.9,143.9 486.9,132.4 486.9,132.4 475.4,132.4 446,132.4 434.5,132.4 434.5,132.4 434.5,86.4 446,86.4 
				477.1,86.4 488.5,86.4 488.5,72.6 488.5,61.1 488.5,61.1 			"/>
			<polygon class="st5" points="449.5,55.2 456.2,55.2 458,53.6 470.2,42.1 458.8,42.1 453.9,42.1 442.5,42.1 438.6,53.6 438,55.2 
				444.8,55.2 			"/>
		</g>
	</g>
</g>
</svg>
